<svg xmlns="http://www.w3.org/2000/svg" viewBox="0 0 256 256" role="img" aria-label="Waraqhur logo">
  <defs>
    <linearGradient id="goldMain" x1="0%" y1="0%" x2="100%" y2="100%">
      <stop offset="0%" stop-color="#fff3a6" />
      <stop offset="45%" stop-color="#ffd84f" />
      <stop offset="100%" stop-color="#f3a600" />
    </linearGradient>
    <linearGradient id="goldSoft" x1="0%" y1="0%" x2="0%" y2="100%">
      <stop offset="0%" stop-color="#fff7bf" />
      <stop offset="100%" stop-color="#f9c21a" />
    </linearGradient>
  </defs>
  <path
    fill="url(#goldMain)"
    d="M136 14c16 27 42 45 62 66 22 23 35 53 35 86 0 56-45 101-101 101S31 222 31 166c0-45 30-80 63-112 17-17 34-31 42-40Z"
  />
  <circle cx="128" cy="165" r="66" fill="#0b1220" />
  <path
    fill="url(#goldSoft)"
    d="M94 87c-15 12-40 39-40 76 0 43 35 78 78 78 23 0 44-10 58-26-12 8-26 12-41 12-43 0-78-35-78-78 0-23 10-44 23-62Z"
    opacity=".95"
  />
  <path
    fill="url(#goldMain)"
    d="M138 117c18 11 24 35 13 53-11 17-34 23-52 12 5-1 10-4 14-8 8-9 8-24 0-33 8-17 18-24 25-24Z"
  />
</svg>
